0
SECTION
2
HEADER
9
$INSUNITS
70
4
9
$ACADVER
1
AC1014
9
$HANDSEED
5
FFFF
0
ENDSEC
0
SECTION
2
TABLES
0
TABLE
2
VPORT
5
8
100
AcDbSymbolTable
0
ENDTAB
0
TABLE
2
LTYPE
5
5
100
AcDbSymbolTable
0
LTYPE
5
14
100
AcDbSymbolTableRecord
100
AcDbLinetypeTableRecord
2
BYBLOCK
70
0
0
LTYPE
5
15
100
AcDbSymbolTableRecord
100
AcDbLinetypeTableRecord
2
BYLAYER
70
0
0
ENDTAB
0
TABLE
2
LAYER
5
2
100
AcDbSymbolTable
70
2
0
LAYER
5
50
100
AcDbSymbolTableRecord
100
AcDbLayerTableRecord
2
0
70
0
6
CONTINUOUS
0
ENDTAB
0
TABLE
2
STYLE
5
3
100
AcDbSymbolTable
70
1
0
STYLE
5
11
100
AcDbSymbolTableRecord
100
AcDbTextStyleTableRecord
2
STANDARD
70
0
0
ENDTAB
0
TABLE
2
VIEW
5
6
100
AcDbSymbolTable
70
0
0
ENDTAB
0
TABLE
2
UCS
5
7
100
AcDbSymbolTable
70
0
0
ENDTAB
0
TABLE
2
APPID
5
9
100
AcDbSymbolTable
70
2
0
APPID
5
12
100
AcDbSymbolTableRecord
100
AcDbRegAppTableRecord
2
ACAD
70
0
0
ENDTAB
0
TABLE
2
DIMSTYLE
5
A
100
AcDbSymbolTable
70
1
0
ENDTAB
0
TABLE
2
BLOCK_RECORD
5
1
100
AcDbSymbolTable
70
1
0
BLOCK_RECORD
5
1F
100
AcDbSymbolTableRecord
100
AcDbBlockTableRecord
2
*MODEL_SPACE
0
BLOCK_RECORD
5
1B
100
AcDbSymbolTableRecord
100
AcDbBlockTableRecord
2
*PAPER_SPACE
0
ENDTAB
0
ENDSEC
0
SECTION
2
BLOCKS
0
BLOCK
5
20
100
AcDbEntity
100
AcDbBlockBegin
2
*MODEL_SPACE
0
ENDBLK
5
21
100
AcDbEntity
100
AcDbBlockEnd
0
BLOCK
5
1C
100
AcDbEntity
100
AcDbBlockBegin
2
*PAPER_SPACE
0
ENDBLK
5
1D
100
AcDbEntity
100
AcDbBlockEnd
0
ENDSEC
0
SECTION
2
ENTITIES
0
LWPOLYLINE
5
100
100
AcDbEntity
8
0
100
AcDbPolyline
90
32
70
1
43
0.0
10
1060.7631160552864
20
-313.24727949217458
10
1060.7631160552862
20
-6.2472794921746395
42
0.41421356237309731
10
1058.7631160552862
20
-4.2472794921746404
10
1051.7631160552862
20
-4.2472794921747381
42
-0.41421356237309226
10
1031.7631160552862
20
15.752720507825355
10
1031.7631160552862
20
22.752720507825362
42
0.41421356237309698
10
1029.7631160552862
20
24.752720507825401
10
938.76311605528622
20
24.752720507825401
42
0.41421356237309509
10
936.76311605528622
20
22.752720507825373
10
936.76311605528622
20
9.7527205078253427
42
-0.41421356237309509
10
934.76311605528622
20
7.7527205078253134
10
817.76311605528645
20
7.7527205078253134
42
-0.41421356237309509
10
815.76311605528645
20
9.7527205078253409
10
815.76311605528645
20
22.752720507825302
42
0.41421356237309509
10
813.76311605528645
20
24.75272050782533
10
722.76311605528645
20
24.75272050782533
42
0.41421356237312817
10
720.76311605528645
20
22.752720507825362
10
720.76311605528645
20
15.752720507825353
42
-0.41421356237309431
10
700.76311605528645
20
-4.2472794921746004
10
693.76311605528645
20
-4.2472794921746448
42
0.41421356237310536
10
691.76311605528656
20
-6.2472794921746555
10
691.76311605528645
20
-313.24727949217458
42
0.41421356237313145
10
693.76311605528645
20
-315.24727949217458
10
700.76311605528645
20
-315.24727949217464
42
-0.41421356237309404
10
720.76311605528645
20
-335.24727949217458
10
720.76311605528645
20
-342.24727949217453
42
0.41421356237313667
10
722.76311605528645
20
-344.24727949217458
10
1029.7631160552862
20
-344.24727949217464
42
0.41421356237310542
10
1031.7631160552862
20
-342.24727949217453
10
1031.7631160552862
20
-335.24727949217458
42
-0.41421356237308982
10
1051.763116055286
20
-315.24727949217447
10
1058.7631160552862
20
-315.24727949217458
42
0.41421356237312101
0
ENDSEC
0
SECTION
2
OBJECTS
0
DICTIONARY
5
C
100
AcDbDictionary
3
ACAD_GROUP
350
D
3
ACAD_MLINESTYLE
350
17
0
DICTIONARY
5
D
100
AcDbDictionary
0
DICTIONARY
5
1A
330
C
100
AcDbDictionary
0
DICTIONARY
5
17
100
AcDbDictionary
0
ENDSEC
0
EOF
