0
SECTION
2
HEADER
9
$INSUNITS
70
4
9
$ACADVER
1
AC1014
9
$HANDSEED
5
FFFF
0
ENDSEC
0
SECTION
2
TABLES
0
TABLE
2
VPORT
5
8
100
AcDbSymbolTable
0
ENDTAB
0
TABLE
2
LTYPE
5
5
100
AcDbSymbolTable
0
LTYPE
5
14
100
AcDbSymbolTableRecord
100
AcDbLinetypeTableRecord
2
BYBLOCK
70
0
0
LTYPE
5
15
100
AcDbSymbolTableRecord
100
AcDbLinetypeTableRecord
2
BYLAYER
70
0
0
ENDTAB
0
TABLE
2
LAYER
5
2
100
AcDbSymbolTable
70
2
0
LAYER
5
50
100
AcDbSymbolTableRecord
100
AcDbLayerTableRecord
2
0
70
0
6
CONTINUOUS
0
ENDTAB
0
TABLE
2
STYLE
5
3
100
AcDbSymbolTable
70
1
0
STYLE
5
11
100
AcDbSymbolTableRecord
100
AcDbTextStyleTableRecord
2
STANDARD
70
0
0
ENDTAB
0
TABLE
2
VIEW
5
6
100
AcDbSymbolTable
70
0
0
ENDTAB
0
TABLE
2
UCS
5
7
100
AcDbSymbolTable
70
0
0
ENDTAB
0
TABLE
2
APPID
5
9
100
AcDbSymbolTable
70
2
0
APPID
5
12
100
AcDbSymbolTableRecord
100
AcDbRegAppTableRecord
2
ACAD
70
0
0
ENDTAB
0
TABLE
2
DIMSTYLE
5
A
100
AcDbSymbolTable
70
1
0
ENDTAB
0
TABLE
2
BLOCK_RECORD
5
1
100
AcDbSymbolTable
70
1
0
BLOCK_RECORD
5
1F
100
AcDbSymbolTableRecord
100
AcDbBlockTableRecord
2
*MODEL_SPACE
0
BLOCK_RECORD
5
1B
100
AcDbSymbolTableRecord
100
AcDbBlockTableRecord
2
*PAPER_SPACE
0
ENDTAB
0
ENDSEC
0
SECTION
2
BLOCKS
0
BLOCK
5
20
100
AcDbEntity
100
AcDbBlockBegin
2
*MODEL_SPACE
0
ENDBLK
5
21
100
AcDbEntity
100
AcDbBlockEnd
0
BLOCK
5
1C
100
AcDbEntity
100
AcDbBlockBegin
2
*PAPER_SPACE
0
ENDBLK
5
1D
100
AcDbEntity
100
AcDbBlockEnd
0
ENDSEC
0
SECTION
2
ENTITIES
0
LWPOLYLINE
5
100
100
AcDbEntity
8
0
100
AcDbPolyline
90
28
70
1
43
0.0
10
-141.1930320055273
20
-406.61071829481813
10
-128.19303200571613
20
-406.61071829481909
10
-128.19303200571613
20
-418.61071829481915
10
-40.193032005527193
20
-418.61071829481915
10
-40.1930320055273
20
-406.61071829481909
10
-26.193032005527293
20
-406.61071829481909
10
-26.193032005524941
20
-94.610718294819009
10
-68.193032005524955
20
-94.610718294814561
42
-0.41421356237371942
10
-71.193032005524941
20
-91.610718294814433
10
-71.193032005523307
20
-49.610718294814404
10
-350.1930320055119
20
-49.610718294813168
10
-350.19303200551178
20
-91.610718294813182
42
-0.41421356237217755
10
-353.1930320055119
20
-94.610718294809843
10
-395.1930320055119
20
-94.610718294808649
10
-395.19303200551167
20
-406.61071829481983
10
-381.19303200551167
20
-406.61071829481955
10
-381.19303200551155
20
-418.61071829481949
10
-251.1930320055117
20
-418.61071829481938
10
-251.19303200551155
20
-409.61071829464572
10
-237.19303200551164
20
-409.61071829464572
10
-237.19303200551127
20
-369.61071829464584
42
-0.41421356237306384
10
-234.19303200551161
20
-366.61071829464572
10
-187.19303200551164
20
-366.61071829464561
42
-0.41421356236613022
10
-184.19303200571588
20
-369.61071829464458
10
-184.19303200571608
20
-409.61071829464453
10
-170.19303200571616
20
-409.61071829464453
10
-170.19303200571619
20
-418.61071829481818
10
-141.1930320055273
20
-418.61071829481818
0
LINE
5
101
100
AcDbEntity
8
0
100
AcDbLine
10
-26.193032005523836
20
-234.49999983272312
30
0
11
-395.19303200551178
21
-234.49999983272329
31
0
0
LINE
5
102
100
AcDbEntity
8
0
100
AcDbLine
10
-210.69303200551761
20
-49.610718294813779
30
0
11
-210.69303200551781
21
-234.4999998327232
31
0
0
ENDSEC
0
SECTION
2
OBJECTS
0
DICTIONARY
5
C
100
AcDbDictionary
3
ACAD_GROUP
350
D
3
ACAD_MLINESTYLE
350
17
0
DICTIONARY
5
D
100
AcDbDictionary
0
DICTIONARY
5
1A
330
C
100
AcDbDictionary
0
DICTIONARY
5
17
100
AcDbDictionary
0
ENDSEC
0
EOF
